<?xml version="1.0" encoding="UTF-8" standalone="no"?>
<!-- Created with Inkscape (http://www.inkscape.org/) -->

<svg
   xmlns:dc="http://purl.org/dc/elements/1.1/"
   xmlns:cc="http://creativecommons.org/ns#"
   xmlns:rdf="http://www.w3.org/1999/02/22-rdf-syntax-ns#"
   xmlns:svg="http://www.w3.org/2000/svg"
   xmlns="http://www.w3.org/2000/svg"
   xmlns:sodipodi="http://sodipodi.sourceforge.net/DTD/sodipodi-0.dtd"
   xmlns:inkscape="http://www.inkscape.org/namespaces/inkscape"
   width="32"
   height="32"
   viewBox="0 0 32 32.000001"
   id="svg2"
   version="1.1"
   inkscape:version="0.91 r13725"
   sodipodi:docname="PFA1-2.svg">
  <defs
     id="defs4" />
  <sodipodi:namedview
     id="base"
     pagecolor="#ffffff"
     bordercolor="#666666"
     borderopacity="1.0"
     inkscape:pageopacity="0.0"
     inkscape:pageshadow="2"
     inkscape:zoom="5.6"
     inkscape:cx="-1.2621073"
     inkscape:cy="21.805189"
     inkscape:document-units="px"
     inkscape:current-layer="layer1"
     showgrid="false"
     units="px"
     inkscape:window-width="2560"
     inkscape:window-height="1343"
     inkscape:window-x="0"
     inkscape:window-y="27"
     inkscape:window-maximized="1" />
  <metadata
     id="metadata7">
    <rdf:RDF>
      <cc:Work
         rdf:about="">
        <dc:format>image/svg+xml</dc:format>
        <dc:type
           rdf:resource="http://purl.org/dc/dcmitype/StillImage" />
        <dc:title></dc:title>
      </cc:Work>
    </rdf:RDF>
  </metadata>
  <g
     inkscape:label="Layer 1"
     inkscape:groupmode="layer"
     id="layer1"
     transform="translate(0,-1020.3622)">
    <g
       style="font-style:normal;font-weight:normal;font-size:119.40298462px;line-height:125%;font-family:sans-serif;letter-spacing:0px;word-spacing:0px;fill:#000000;fill-opacity:1;stroke:none;stroke-width:1px;stroke-linecap:butt;stroke-linejoin:miter;stroke-opacity:1"
       id="text4136">
      <path
         d="m 6.1035152e-8,1036.3622 c 0,8.8358 7.164179038964848,16 15.999999938964847,16 8.835821,0 16,-7.1642 16,-16 0,-8.8358 -7.164179,-16 -16,-16 -8.8358209,0 -15.999999938964847,7.1642 -15.999999938964847,16 z m 3.343283538964848,0 c 0,-7.0448 5.6119403,-12.6567 12.6567164,-12.6567 7.044776,0 12.656716,5.6119 12.656716,12.6567 0,7.0448 -5.61194,12.6567 -12.656716,12.6567 -7.0447761,0 -12.6567164,-5.6119 -12.6567164,-12.6567 z m 5.9701493,-0.1194 c 0,3.7015 2.9850741,6.6865 6.6865671,6.6865 3.701493,0 6.686567,-2.985 6.686567,-6.6865 0,-3.7015 -2.985074,-6.6866 -6.686567,-6.6866 -3.701493,0 -6.6865671,2.9851 -6.6865671,6.6866 z"
         style="font-style:normal;font-variant:normal;font-weight:normal;font-stretch:normal;font-size:119.40298462px;line-height:125%;font-family:CadastraSymbol;-inkscape-font-specification:'CadastraSymbol, Normal';text-align:start;writing-mode:lr-tb;text-anchor:start"
         id="path4269" />
    </g>
  </g>
</svg>
